<svg width="180" height="48" viewBox="0 0 180 48" fill="none" xmlns="http://www.w3.org/2000/svg">
<g filter="url(#filter0_d_9694_272)">
<path d="M2 10C2 5.58172 5.58172 2 10 2H166C170.418 2 174 5.58172 174 10V34C174 38.4183 170.418 42 166 42H10C5.58173 42 2 38.4183 2 34V10Z" fill="#1C1C1C"/>
<path d="M17.3463 14C16.333 14 15.4506 14.6696 15.2059 15.6239L13.2413 23.2545C13.1965 23.4252 13.1758 23.5993 13.1758 23.7734V26.8571C13.1758 28.0391 14.165 29 15.3817 29H28.617C29.8336 29 30.8228 28.0391 30.8228 26.8571V23.7734C30.8228 23.5993 30.8022 23.4252 30.7574 23.2545L28.7927 15.6239C28.548 14.6696 27.6657 14 26.6523 14H17.3463ZM17.3463 16.1429H26.6523L28.3068 22.5714H26.5421C26.125 22.5714 25.7424 22.7991 25.5563 23.1641L25.0634 24.1217C24.8773 24.4833 24.4947 24.7143 24.0777 24.7143H19.9244C19.5074 24.7143 19.1248 24.4866 18.9386 24.1217L18.4458 23.1641C18.2597 22.8025 17.8771 22.5714 17.46 22.5714H15.6919L17.3463 16.1429Z" fill="white"/>
<path d="M43.328 27V16.536H46.672C47.3973 16.536 48.0373 16.6213 48.592 16.792C49.1573 16.952 49.6 17.2187 49.92 17.592C50.2507 17.9653 50.416 18.472 50.416 19.112C50.416 19.6453 50.288 20.12 50.032 20.536C49.7867 20.9413 49.4293 21.224 48.96 21.384V21.448C49.5787 21.576 50.064 21.8373 50.416 22.232C50.7787 22.616 50.96 23.1547 50.96 23.848C50.96 24.5627 50.784 25.1547 50.432 25.624C50.0907 26.0933 49.616 26.44 49.008 26.664C48.4 26.888 47.712 27 46.944 27H43.328ZM45.184 20.856H46.512C47.2373 20.856 47.7653 20.7227 48.096 20.456C48.4267 20.1893 48.592 19.832 48.592 19.384C48.592 18.872 48.4213 18.5093 48.08 18.296C47.7387 18.0827 47.2267 17.976 46.544 17.976H45.184V20.856ZM45.184 25.56H46.752C47.52 25.56 48.112 25.4213 48.528 25.144C48.944 24.856 49.152 24.4187 49.152 23.832C49.152 23.2773 48.9493 22.8773 48.544 22.632C48.1387 22.376 47.5413 22.248 46.752 22.248H45.184V25.56ZM51.6146 27L54.1106 22.904L51.7746 19.144H53.7586L54.6386 20.632C54.756 20.8453 54.8733 21.064 54.9906 21.288C55.108 21.512 55.2306 21.736 55.3586 21.96H55.4226C55.5186 21.736 55.62 21.512 55.7266 21.288C55.8333 21.064 55.9346 20.8453 56.0306 20.632L56.7826 19.144H58.6866L56.3666 23.112L58.8626 27H56.8786L55.9186 25.448C55.7906 25.2133 55.6573 24.9787 55.5186 24.744C55.3906 24.5093 55.2573 24.28 55.1186 24.056H55.0546C54.9373 24.28 54.82 24.5093 54.7026 24.744C54.5853 24.968 54.4733 25.2027 54.3666 25.448L53.5346 27H51.6146ZM63.134 27.192C62.4833 27.192 61.8753 27.032 61.31 26.712C60.7447 26.3813 60.286 25.912 59.934 25.304C59.582 24.6853 59.406 23.944 59.406 23.08C59.406 22.2053 59.582 21.464 59.934 20.856C60.286 20.2373 60.7447 19.768 61.31 19.448C61.8753 19.1173 62.4833 18.952 63.134 18.952C63.7953 18.952 64.4087 19.1173 64.974 19.448C65.5393 19.768 65.998 20.2373 66.35 20.856C66.702 21.464 66.878 22.2053 66.878 23.08C66.878 23.944 66.702 24.6853 66.35 25.304C65.998 25.912 65.5393 26.3813 64.974 26.712C64.4087 27.032 63.7953 27.192 63.134 27.192ZM63.134 25.688C63.518 25.688 63.8487 25.5813 64.126 25.368C64.4033 25.1547 64.6167 24.8507 64.766 24.456C64.9153 24.0613 64.99 23.6027 64.99 23.08C64.99 22.5573 64.9153 22.0987 64.766 21.704C64.6167 21.3093 64.4033 21.0053 64.126 20.792C63.8487 20.568 63.518 20.456 63.134 20.456C62.75 20.456 62.4193 20.568 62.142 20.792C61.8753 21.0053 61.6673 21.3093 61.518 21.704C61.3687 22.0987 61.294 22.5573 61.294 23.08C61.294 23.6027 61.3687 24.0613 61.518 24.456C61.6673 24.8507 61.8753 25.1547 62.142 25.368C62.4193 25.5813 62.75 25.688 63.134 25.688ZM69.5473 27V29.752H67.9473L67.7713 26.728V25.528H76.2033V26.728L76.0113 29.752H74.4273V27H69.5473ZM73.1633 26.456V20.6H71.0673L70.8273 22.84C70.7419 23.5333 70.6246 24.1147 70.4753 24.584C70.3366 25.0533 70.1606 25.432 69.9473 25.72C69.7446 26.008 69.5153 26.2213 69.2593 26.36C69.0033 26.4987 68.7366 26.584 68.4593 26.616L68.2193 25.528C68.3473 25.464 68.4699 25.3413 68.5872 25.16C68.7153 24.9787 68.8273 24.68 68.9233 24.264C69.0299 23.8373 69.1313 23.2293 69.2273 22.44L69.6113 19.144H75.0033V26.456H73.1633ZM81.9248 27V24.216H80.7568C80.3728 24.216 79.9888 24.168 79.6048 24.072C79.2208 23.976 78.8688 23.8267 78.5488 23.624C78.2394 23.4107 77.9888 23.1387 77.7968 22.808C77.6048 22.4773 77.5088 22.0773 77.5088 21.608C77.5088 20.9893 77.6474 20.504 77.9248 20.152C78.2128 19.7893 78.5968 19.5333 79.0768 19.384C79.5568 19.224 80.0954 19.144 80.6927 19.144H83.7648V27H81.9248ZM80.9488 22.84H81.9248V20.536H80.9488C80.4368 20.536 80.0421 20.6267 79.7648 20.808C79.4874 20.9787 79.3488 21.2507 79.3488 21.624C79.3488 22.008 79.4874 22.3067 79.7648 22.52C80.0421 22.7333 80.4368 22.84 80.9488 22.84ZM76.8528 27L79.5088 23.288L81.0448 23.832L78.9648 27H76.8528ZM95.6411 29.752V27H95.0971V25.528H97.4011V26.728L97.2251 29.752H95.6411ZM86.1211 27V19.144H87.9451V25.528H90.2811V19.144H92.0571V25.528H94.3931V19.144H96.2171V27H86.1211ZM98.8555 27V19.144H100.648V21.848C100.648 22.2747 100.632 22.7227 100.6 23.192C100.568 23.6613 100.525 24.184 100.472 24.76H100.536C100.685 24.4507 100.84 24.1307 101 23.8C101.17 23.4587 101.325 23.1707 101.464 22.936L103.672 19.144H105.704V27H103.912V24.28C103.912 23.8747 103.922 23.4373 103.944 22.968C103.976 22.488 104.024 21.9547 104.088 21.368H104.024C103.885 21.6987 103.73 22.0293 103.56 22.36C103.4 22.6907 103.245 22.9787 103.096 23.224L100.888 27H98.8555ZM111.419 27.192C110.683 27.192 110.016 27.032 109.419 26.712C108.832 26.3813 108.368 25.912 108.027 25.304C107.686 24.6853 107.515 23.9387 107.515 23.064C107.515 22.2107 107.691 21.48 108.043 20.872C108.395 20.2533 108.848 19.7787 109.403 19.448C109.958 19.1173 110.544 18.952 111.163 18.952C111.878 18.952 112.475 19.112 112.955 19.432C113.435 19.752 113.792 20.1947 114.027 20.76C114.272 21.3147 114.395 21.9547 114.395 22.68C114.395 22.8507 114.384 23.016 114.363 23.176C114.352 23.336 114.331 23.4907 114.299 23.64H108.891V22.232H112.763C112.763 21.6667 112.635 21.224 112.379 20.904C112.123 20.5733 111.728 20.408 111.195 20.408C110.896 20.408 110.603 20.488 110.315 20.648C110.038 20.808 109.803 21.08 109.611 21.464C109.43 21.848 109.339 22.3813 109.339 23.064C109.339 23.6827 109.446 24.1893 109.659 24.584C109.872 24.968 110.155 25.256 110.507 25.448C110.859 25.6293 111.238 25.72 111.643 25.72C111.984 25.72 112.304 25.672 112.603 25.576C112.912 25.48 113.2 25.3467 113.467 25.176L114.107 26.36C113.744 26.616 113.328 26.8187 112.859 26.968C112.4 27.1173 111.92 27.192 111.419 27.192Z" fill="white"/>
</g>
<defs>
<filter id="filter0_d_9694_272" x="0" y="0" width="180" height="48" filterUnits="userSpaceOnUse" color-interpolation-filters="sRGB">
<feFlood flood-opacity="0" result="BackgroundImageFix"/>
<feColorMatrix in="SourceAlpha" type="matrix" values="0 0 0 0 0 0 0 0 0 0 0 0 0 0 0 0 0 0 127 0" result="hardAlpha"/>
<feOffset dx="2" dy="2"/>
<feGaussianBlur stdDeviation="2"/>
<feComposite in2="hardAlpha" operator="out"/>
<feColorMatrix type="matrix" values="0 0 0 0 0 0 0 0 0 0 0 0 0 0 0 0 0 0 0.2 0"/>
<feBlend mode="normal" in2="BackgroundImageFix" result="effect1_dropShadow_9694_272"/>
<feBlend mode="normal" in="SourceGraphic" in2="effect1_dropShadow_9694_272" result="shape"/>
</filter>
</defs>
</svg>
