<svg width="126" height="48" viewBox="0 0 126 48" fill="none" xmlns="http://www.w3.org/2000/svg">
<g filter="url(#filter0_d_9694_871)">
<path d="M2 10C2 5.58172 5.58172 2 10 2H112C116.418 2 120 5.58172 120 10V34C120 38.4183 116.418 42 112 42H10C5.58172 42 2 38.4183 2 34V10Z" fill="#D51010" shape-rendering="crispEdges"/>
<path d="M19.5714 13C18.1531 13 17 14.1531 17 15.5714V28.4286C17 29.8469 18.1531 31 19.5714 31H32.4286C33.8469 31 35 29.8469 35 28.4286V15.5714C35 14.1531 33.8469 13 32.4286 13H19.5714ZM25.0357 25.5357V22.9643H22.4643C21.9299 22.9643 21.5 22.5344 21.5 22C21.5 21.4656 21.9299 21.0357 22.4643 21.0357H25.0357V18.4643C25.0357 17.9299 25.4656 17.5 26 17.5C26.5344 17.5 26.9643 17.9299 26.9643 18.4643V21.0357H29.5357C30.0701 21.0357 30.5 21.4656 30.5 22C30.5 22.5344 30.0701 22.9643 29.5357 22.9643H26.9643V25.5357C26.9643 26.0701 26.5344 26.5 26 26.5C25.4656 26.5 25.0357 26.0701 25.0357 25.5357Z" fill="white"/>
<path d="M51.536 27.192C50.6507 27.192 49.8453 26.984 49.12 26.568C48.4053 26.152 47.8347 25.544 47.408 24.744C46.992 23.9333 46.784 22.952 46.784 21.8C46.784 20.9467 46.9067 20.184 47.152 19.512C47.3973 18.8293 47.7387 18.2533 48.176 17.784C48.624 17.3147 49.136 16.9573 49.712 16.712C50.288 16.4667 50.9067 16.344 51.568 16.344C52.2293 16.344 52.816 16.4773 53.328 16.744C53.84 17 54.2613 17.3093 54.592 17.672L53.6 18.808C53.3333 18.5307 53.0347 18.3227 52.704 18.184C52.384 18.0347 52.0213 17.96 51.616 17.96C51.0613 17.96 50.56 18.1147 50.112 18.424C49.6747 18.7333 49.328 19.1707 49.072 19.736C48.816 20.3013 48.688 20.9733 48.688 21.752C48.688 22.552 48.8107 23.24 49.056 23.816C49.3013 24.3813 49.648 24.8187 50.096 25.128C50.544 25.4267 51.0667 25.576 51.664 25.576C52.112 25.576 52.512 25.4853 52.864 25.304C53.216 25.1227 53.536 24.8827 53.824 24.584L54.768 25.688C54.3413 26.1787 53.8613 26.552 53.328 26.808C52.7947 27.064 52.1973 27.192 51.536 27.192ZM59.6028 27.192C58.9521 27.192 58.3441 27.032 57.7788 26.712C57.2134 26.3813 56.7548 25.912 56.4028 25.304C56.0508 24.6853 55.8748 23.944 55.8748 23.08C55.8748 22.2053 56.0508 21.464 56.4028 20.856C56.7548 20.2373 57.2134 19.768 57.7788 19.448C58.3441 19.1173 58.9521 18.952 59.6028 18.952C60.2641 18.952 60.8774 19.1173 61.4428 19.448C62.0081 19.768 62.4668 20.2373 62.8188 20.856C63.1708 21.464 63.3468 22.2053 63.3468 23.08C63.3468 23.944 63.1708 24.6853 62.8188 25.304C62.4668 25.912 62.0081 26.3813 61.4428 26.712C60.8774 27.032 60.2641 27.192 59.6028 27.192ZM59.6028 25.688C59.9868 25.688 60.3174 25.5813 60.5948 25.368C60.8721 25.1547 61.0854 24.8507 61.2348 24.456C61.3841 24.0613 61.4588 23.6027 61.4588 23.08C61.4588 22.5573 61.3841 22.0987 61.2348 21.704C61.0854 21.3093 60.8721 21.0053 60.5948 20.792C60.3174 20.568 59.9868 20.456 59.6028 20.456C59.2188 20.456 58.8881 20.568 58.6108 20.792C58.3441 21.0053 58.1361 21.3093 57.9868 21.704C57.8374 22.0987 57.7628 22.5573 57.7628 23.08C57.7628 23.6027 57.8374 24.0613 57.9868 24.456C58.1361 24.8507 58.3441 25.1547 58.6108 25.368C58.8881 25.5813 59.2188 25.688 59.6028 25.688ZM67.1763 27.192C66.6536 27.192 66.1416 27.128 65.6403 27C65.1389 26.872 64.6483 26.616 64.1683 26.232L64.9363 25.048C65.2776 25.304 65.6243 25.4853 65.9763 25.592C66.3389 25.6987 66.6856 25.752 67.0163 25.752C67.3363 25.752 67.6243 25.7093 67.8802 25.624C68.1363 25.528 68.3389 25.4 68.4883 25.24C68.6376 25.0693 68.7123 24.8667 68.7123 24.632C68.7123 24.2907 68.5789 24.04 68.3123 23.88C68.0456 23.72 67.6456 23.64 67.1123 23.64H65.9283V22.264H66.9523C67.4536 22.264 67.8216 22.184 68.0563 22.024C68.3016 21.8533 68.4243 21.624 68.4243 21.336C68.4243 21.016 68.2963 20.776 68.0403 20.616C67.7949 20.456 67.4643 20.376 67.0483 20.376C66.6536 20.376 66.2963 20.424 65.9763 20.52C65.6669 20.616 65.3576 20.7707 65.0483 20.984L64.3283 19.784C64.7336 19.5173 65.1656 19.3147 65.6243 19.176C66.0936 19.0267 66.6056 18.952 67.1603 18.952C67.7043 18.952 68.2056 19.032 68.6643 19.192C69.1336 19.3413 69.5069 19.576 69.7843 19.896C70.0723 20.216 70.2163 20.6213 70.2163 21.112C70.2163 21.4747 70.1096 21.816 69.8963 22.136C69.6936 22.456 69.3736 22.6907 68.9363 22.84V22.904C69.4163 23.0107 69.8003 23.2187 70.0883 23.528C70.3869 23.8267 70.5363 24.248 70.5363 24.792C70.5363 25.304 70.3763 25.7413 70.0563 26.104C69.7363 26.456 69.3203 26.728 68.8083 26.92C68.2963 27.1013 67.7523 27.192 67.1763 27.192ZM73.1254 27V29.752H71.5254L71.3494 26.728V25.528H79.7814V26.728L79.5894 29.752H78.0054V27H73.1254ZM76.7414 26.456V20.6H74.6454L74.4054 22.84C74.32 23.5333 74.2027 24.1147 74.0534 24.584C73.9147 25.0533 73.7387 25.432 73.5254 25.72C73.3227 26.008 73.0934 26.2213 72.8374 26.36C72.5814 26.4987 72.3147 26.584 72.0374 26.616L71.7974 25.528C71.9254 25.464 72.048 25.3413 72.1654 25.16C72.2934 24.9787 72.4054 24.68 72.5014 24.264C72.608 23.8373 72.7094 23.2293 72.8054 22.44L73.1894 19.144H78.5814V26.456H76.7414ZM83.2126 27.192C82.754 27.192 82.3486 27.096 81.9966 26.904C81.6446 26.712 81.3673 26.4453 81.1646 26.104C80.9726 25.752 80.8766 25.3467 80.8766 24.888C80.8766 24.0027 81.2446 23.336 81.9806 22.888C82.7273 22.4293 83.906 22.1147 85.5166 21.944C85.506 21.6773 85.4526 21.432 85.3566 21.208C85.2713 20.984 85.122 20.808 84.9086 20.68C84.706 20.5413 84.4286 20.472 84.0766 20.472C83.6926 20.472 83.314 20.5413 82.9406 20.68C82.578 20.8187 82.2206 20.9947 81.8686 21.208L81.1966 19.96C81.4846 19.7787 81.7993 19.6133 82.1406 19.464C82.482 19.304 82.8446 19.1813 83.2286 19.096C83.6126 19 84.0126 18.952 84.4286 18.952C85.0793 18.952 85.618 19.0853 86.0446 19.352C86.482 19.608 86.8073 19.992 87.0206 20.504C87.2446 21.0053 87.3566 21.624 87.3566 22.36V27H85.8366L85.7086 26.136H85.6446C85.282 26.4347 84.9033 26.6853 84.5086 26.888C84.114 27.0907 83.682 27.192 83.2126 27.192ZM83.7886 25.688C84.1086 25.688 84.402 25.624 84.6686 25.496C84.946 25.3573 85.2286 25.1547 85.5166 24.888V23.224C84.802 23.3093 84.2366 23.4213 83.8206 23.56C83.4046 23.6987 83.106 23.8693 82.9246 24.072C82.754 24.264 82.6686 24.4933 82.6686 24.76C82.6686 25.0907 82.7753 25.3307 82.9886 25.48C83.202 25.6187 83.4686 25.688 83.7886 25.688ZM91.0206 27V20.6H88.5566V19.144H95.3406V20.6H92.8766V27H91.0206ZM96.918 27V19.144H98.758V21.832H99.942C100.571 21.832 101.131 21.9173 101.622 22.088C102.113 22.2587 102.497 22.5307 102.774 22.904C103.051 23.2773 103.19 23.7733 103.19 24.392C103.19 25.0213 103.051 25.528 102.774 25.912C102.497 26.296 102.113 26.5733 101.622 26.744C101.131 26.9147 100.571 27 99.942 27H96.918ZM98.758 25.576H99.814C100.358 25.576 100.758 25.48 101.014 25.288C101.281 25.0853 101.414 24.7813 101.414 24.376C101.414 23.9813 101.281 23.6933 101.014 23.512C100.758 23.32 100.358 23.224 99.814 23.224H98.758V25.576Z" fill="white"/>
</g>
<defs>
<filter id="filter0_d_9694_871" x="0" y="0" width="126" height="48" filterUnits="userSpaceOnUse" color-interpolation-filters="sRGB">
<feFlood flood-opacity="0" result="BackgroundImageFix"/>
<feColorMatrix in="SourceAlpha" type="matrix" values="0 0 0 0 0 0 0 0 0 0 0 0 0 0 0 0 0 0 127 0" result="hardAlpha"/>
<feOffset dx="2" dy="2"/>
<feGaussianBlur stdDeviation="2"/>
<feComposite in2="hardAlpha" operator="out"/>
<feColorMatrix type="matrix" values="0 0 0 0 0 0 0 0 0 0 0 0 0 0 0 0 0 0 0.2 0"/>
<feBlend mode="normal" in2="BackgroundImageFix" result="effect1_dropShadow_9694_871"/>
<feBlend mode="normal" in="SourceGraphic" in2="effect1_dropShadow_9694_871" result="shape"/>
</filter>
</defs>
</svg>
